<svg xmlns="http://www.w3.org/2000/svg" xmlns:xlink="http://www.w3.org/1999/xlink" version="1.1" x="0px" y="0px" viewBox="0 0 80 80" enable-background="new 0 0 80 80" xml:space="preserve"><path d="M26.4,46.2c0,0.3-0.1,0.4-0.1,0.6c0.6,2.1,0.1,4.2,0.2,6.4c0,0.2,0.2,0.5,0.3,0.7c0.1,0.1,0.2,0.2,0.2,0.3  c0,0.4-1.1,1.1-1.5,1c-0.3-0.1-0.7-0.1-1,0c-1.2,0.3-2.3,0.7-3.5,0.9c-0.5,0.1-1-0.4-1.6-0.6c-0.8-0.3-0.6-0.9-0.5-1.5  c0.2-1.2,0.1-1.1-1.1-1c-1,0.1-1.4,0.6-1.6,1.4c-0.2,0.7-0.2,1.5-0.4,2.3c-0.1,0.4-0.4,0.8-0.7,0.9c-1,0.4-2.1,0.6-3.2,0.9  c-0.1,0-0.3,0.1-0.4,0.1c-1.4-0.4-2.8-0.9-4-1.3C8.6,53,9.4,49,10.3,44.9c-0.9-0.1-1.7-0.2-2.6-0.3c-1.2-0.1-2.3-0.1-3.5-0.2  c-0.9-0.1-0.9-0.3-0.6-1.1c0.2-0.4,0.2-0.9,0.2-1.4c0-0.6,0.2-0.9,0.8-1.1c1.7-0.5,3.4-1.2,5.1-1.7c1.8-0.6,3.5-1.1,5.3-1.5  c0.2-0.1,0.5,0.1,0.7,0.2c0.5,0.3,0.7,0.3,1-0.4c0.6-1.8,1.3-3.5,1.9-5.3c0.2-0.6,0.3-1.2,0.5-1.9c-0.6-0.1-1.1-0.1-1.7-0.2  c-1.2-0.1-2.3-0.1-3.5-0.2c-0.6,0-0.9-0.4-1.1-0.9c-0.5-1.4-0.2-2.6,0.3-3.9c0.2-0.7,0.7-1.4,1.1-2.1c0.9-1.3,2.1-1.7,3.7-1.5  c1,0.1,2,0.1,3,0.3c0.6,0.1,0.8-0.1,0.9-0.7c0.3-1.5,1-1.9,2.5-1.8c0.4,0,0.7,0.1,1.1,0.2c0.5,0.1,0.7,0.3,0.7,0.8  c0.1,1.6,0.1,1.7,1.7,1.8c1.6,0.1,3.3,0.1,4.9,0.2c2.2,0.1,4.4,0.2,6.6,0.4c3,0.2,6.1,0.3,9.1,0.5c3.4,0.2,6.8,0.3,10.2,0.5  c2.5,0.1,5,0.3,7.6,0.5c0.4,0,0.9,0,1-0.5c0.1-0.4,0.2-0.9,0.4-1c0.6-0.2,1.3-0.3,2-0.3c0.6,0,1.2,0.2,1.9,0.4  c0,0.2,0.1,0.5,0.1,0.8c-0.1,0.7,0.3,0.9,0.9,0.9c0.9,0,1.8,0,2.7,0.1c1.2,0.1,2,1,2.1,2.4c0,1.7-0.3,3.2-1.3,4.6  c-0.4,0.5-0.7,1-1,1.4c-0.5,0.7-1.2,1.1-2.1,0.9c0,0-0.1,0-0.1,0c-1.7,0.7-3.3-0.2-5-0.2c-0.2,0-0.4,0-0.5,0  c-0.9,2.6-1.8,5.1-2.7,7.8c1.4,0.1,2.5,0.2,3.7,0.2c0.1,0,0.3,0,0.4,0c1.3,0.2,1.2,0.2,1.2,1.5c0.1,1.5-0.7,2.2-1.9,2.8  c-0.9,0.4-1.7,0.9-2.5,1.4c-0.3,0.2-0.7,0.4-1,0.6c-1.6,1-3.3,1.1-5,0.9c-0.5,0-0.8,0.1-0.9,0.6c-0.3,1.6-0.6,3.2-1,4.7  c-0.6,2.3-1.3,4.5-1.9,6.8c-0.1,0.2-0.1,0.4-0.2,0.9c1.2-0.4,2.2-0.8,3.2-1.1c0.2-0.1,0.2-0.4,0.3-0.6c0.2-1,0.4-2,0.6-3  c0.1-0.6,0.4-0.7,1-0.9c1.7-0.4,3.4-0.8,5.1-1.2c0.6-0.2,0.7,0.2,0.7,0.6c0,0.6,0,1.3,0,1.9c0,0.6,0.2,0.9,0.8,0.6  c0.9-0.3,1.8-0.6,2.6-0.9c0.2-0.1,0.5-0.5,0.5-0.7c0-2.6,0-5.1,0-7.7c0-1.5,0.1-3,0.1-4.5c0-0.3-0.1-0.7-0.1-1  c0.1-2.3,0.1-4.7,0.2-7c0-0.4,0-0.8,0.1-1.2c0.1-0.3,0.3-0.5,0.4-0.7c0.2,0.2,0.5,0.5,0.5,0.7c0,1.2,0,2.5-0.1,3.7  c-0.3,2.5,0,4.9-0.1,7.4c-0.1,3.2,0,6.4-0.1,9.5c0,0.5-0.1,1.1-0.2,1.6c-0.1,0.2-0.4,0.4-0.6,0.5c-1.5,0.5-3,1.1-4.6,1.4  c-0.8,0.2-1.8-0.1-2.6-0.3c-0.6-0.1-0.9-0.6-0.8-1.2c0.1-0.7-0.1-0.8-0.8-0.6c-0.9,0.2-1.4,0.7-1.4,1.6c0,0.7-0.6,1.3-0.1,2  c0,0-0.4,0.6-0.6,0.7c-1.1,0.4-2.3,0.7-3.4,1.1c-0.2,0.1-0.4,0.1-0.6,0.2c-0.7,0.1-1.4,0.7-2.1-0.2c-0.3-0.4-1.1-0.5-1.6-0.6  c-0.5-0.2-0.7-0.5-0.6-1c0.1-0.4,0.3-0.8,0.4-1.1c0.7-2.7,1.4-5.3,2-8c0.2-0.9,0.5-1.9,0.7-2.9c0-0.1-0.3-0.5-0.5-0.5  c-1.8-0.2-3.6-0.4-5.3-0.5c-4.3-0.4-8.5-0.7-12.8-1.1C32.5,46.6,29.5,46.4,26.4,46.2z M69.2,32.2c1.6,0.2,3.2,0.3,4.5-1.2  c1.1-1.3,1.9-2.7,1.8-4.5c0-0.5-0.2-0.8-0.8-0.8c-1.1-0.1-2.3-0.3-3.4-0.3c-2.2-0.1-4.4-0.2-6.5-0.3c-3.3-0.1-6.5-0.3-9.8-0.5  c-2.6-0.1-5.1-0.3-7.7-0.4c-3.4-0.2-6.8-0.4-10.2-0.6c-3.4-0.2-6.9-0.4-10.3-0.6c-1.7-0.1-3.5-0.2-5.2-0.3c-1.5-0.1-3-0.2-4.6-0.2  c-0.3,0-0.6,0.2-0.8,0.3c-1.2,1.1-1.8,2.5-2,4.1c-0.2,1.4,0.1,1.9,1.5,2c4,0.3,8.1,0.7,12.1,0.9c4.3,0.3,8.6,0.4,12.8,0.7  c3.7,0.2,7.5,0.5,11.2,0.7c3.7,0.2,7.3,0.5,11,0.7C64.8,32.1,66.9,32.1,69.2,32.2z M63.8,33.3c-12.6-0.8-25-1.7-37.3-2.5  c0,1.5,0,2.9,0,4.2c0,1.1,0.3,2.3-0.4,3.4c0.3,0,0.6,0.1,0.9,0.1c1.6,0.1,3.2,0.2,4.8,0.4c4,0.3,8,0.7,12,1.1  c2.3,0.2,4.5,0.3,6.8,0.4c3.2,0.2,6.4,0.4,9.6,0.7c0.6,0.1,0.8-0.2,1-0.7c0.7-1.8,1.4-3.5,2.1-5.2C63.5,34.6,63.6,34,63.8,33.3z   M67.8,42.8c-0.5-0.1-0.9-0.3-1.2-0.3c-1.5-0.1-3.1-0.2-4.6-0.3c-1.6-0.1-3.2-0.2-4.8-0.3c-2.5-0.2-5-0.4-7.5-0.6  c-3.2-0.2-6.3-0.4-9.5-0.7c-3.2-0.3-6.5-0.5-9.7-0.8c-3.1-0.3-6.1-0.5-9.2-0.7c-1.6-0.1-3.2-0.5-4.8-0.4c-2.9,0.2-5.7,1.1-8.5,2.1  c-0.1,0-0.2,0.2-0.4,0.3c0.4,0.1,0.7,0.2,1,0.2c3.2,0.3,6.4,0.6,9.7,0.8c3.2,0.2,6.3,0.4,9.5,0.7c3.6,0.3,7.2,0.6,10.8,0.9  c2.2,0.2,4.4,0.3,6.6,0.5c2.8,0.2,5.6,0.4,8.5,0.7c2.2,0.2,4.4,0.4,6.5,0.5c1,0,2,0.1,2.9-0.2c1.4-0.5,2.8-1.2,4.1-1.8  C67.3,43.2,67.5,43,67.8,42.8z M25.6,46.2c-0.4-0.1-0.6-0.2-0.7-0.2c-3-0.3-6.1-0.5-9.1-0.8c-1.2-0.1-1.3,0-1.6,1.2  c-0.4,1.8-0.9,3.6-1.3,5.4c-0.4,1.7-0.6,3.4-0.9,5c-0.1,0.5,0.1,0.8,0.7,0.6c0.6-0.2,1.3-0.3,1.9-0.5c0.2-0.1,0.3-0.3,0.3-0.4  c0.3-1.2,0.5-2.4,0.8-3.6c0-0.2,0.3-0.4,0.4-0.5c1.7-0.4,3.4-1.1,5.3-0.8c0.8,0.1,1.2,0.4,1.2,1.2c0,0.6,0,1.3,0,2.1  c0.5-0.2,0.9-0.3,1.2-0.4c1.6-0.5,1.7-0.5,1.7-2.1C25.6,50.4,25.6,48.3,25.6,46.2z M59.6,47.8C59.6,47.8,59.6,47.7,59.6,47.8  c0.2-0.1,0.3-0.1,0.5-0.1c0.5,0.1,1,0.1,1.1-0.6c0.1-0.6-0.4-0.7-0.9-0.7c-1.3-0.2-2.6-0.3-4-0.4c-1.5-0.1-2.9-0.1-4.4-0.2  c-2.6-0.2-5.2-0.5-7.7-0.7c-3-0.3-6.1-0.5-9.1-0.7c-3.5-0.1-7.1-0.6-10.6-0.8c-3.7-0.2-7.3-0.6-11-0.9C11,42.4,8.5,42.2,6,42  c-0.8-0.1-1.2,0.5-0.8,1.1c0.2,0.3,0.7,0.4,1,0.4c2.6,0.3,5.3,0.5,7.9,0.7c2.1,0.2,4.2,0.4,6.3,0.6c2.2,0.2,4.5,0.3,6.7,0.5  c3.2,0.2,6.4,0.5,9.6,0.8c3.4,0.3,6.8,0.5,10.2,0.7C51.1,47.1,55.3,47.4,59.6,47.8z M20.1,38.1c1.7,0.1,3.4,0.2,5,0.3  c0.1,0,0.3-0.4,0.3-0.6c0-2.3,0-4.7,0-7.1c-0.9-0.1-2-0.1-2.8-0.2C21.8,33.1,21,35.5,20.1,38.1z"/><path d="M22.5,23.4c0.9,0,0.7,0.8,0.7,1.2c0,0.2-0.6,0.6-0.7,0.6c-0.4-0.1-0.9-0.5-0.9-0.8C21.6,24,21.8,23.4,22.5,23.4z"/><path d="M68,26c0.1,0.2,0.5,0.4,0.5,0.7c0,0.5-0.2,1.1-0.9,1c-0.2,0-0.6-0.4-0.6-0.7C67.1,26.6,67.1,26,68,26z"/><path d="M66.1,30.2c0-0.8,0.4-1.2,1-1.3c0.1,0,0.4,0.4,0.4,0.4c-0.2,0.5-0.5,0.9-0.8,1.3C66.4,30.5,66.2,30.3,66.1,30.2z"/><path d="M22,27c-0.5,0.4-0.7,0.7-1,0.9c-0.1,0-0.5-0.4-0.5-0.5c0.1-0.3,0.3-0.6,0.6-0.8C21.1,26.5,21.5,26.7,22,27z"/><path d="M17.4,39.7c-0.4,0.3-0.7,0.5-0.9,0.7c-0.1-0.2-0.4-0.4-0.3-0.5c0.2-0.3,0.4-0.5,0.7-0.7C16.9,39.2,17.1,39.5,17.4,39.7z"/><path d="M58.4,44.7c-0.1-0.2-0.3-0.5-0.2-0.7c0-0.2,0.3-0.4,0.5-0.6c0.2,0.2,0.5,0.4,0.6,0.6c0.1,0.2-0.1,0.5-0.2,0.7  C58.8,44.7,58.6,44.7,58.4,44.7z"/><path d="M14.8,40.7c-0.3,0.3-0.5,0.5-0.7,0.5c-0.1,0-0.3-0.3-0.5-0.4c0.2-0.2,0.3-0.4,0.5-0.5C14.3,40.3,14.5,40.5,14.8,40.7z"/><path d="M62,42.9c-0.3,0.2-0.5,0.5-0.6,0.4C61.2,43.3,61,43,61,42.8c0-0.1,0.3-0.4,0.3-0.4C61.5,42.5,61.7,42.7,62,42.9z"/></svg>
