<?xml version="1.0" encoding="utf-8"?>
<!-- Generator: Adobe Illustrator 19.0.1, SVG Export Plug-In . SVG Version: 6.00 Build 0)  -->
<svg version="1.1" id="Layer_1" xmlns="http://www.w3.org/2000/svg" xmlns:xlink="http://www.w3.org/1999/xlink" x="0px" y="0px"
	 viewBox="-4 10 91 81" style="enable-background:new -4 10 91 81;" xml:space="preserve">
<style type="text/css">
	.st0{enable-background:new    ;}
</style>
<g class="st0">
	<path d="M20,63.7c-0.3,0.6-0.5,1.2-0.8,2c-0.3,0.7-0.4,1.4-0.4,2c0,0.4,0.1,0.7,0.2,0.9c0.1,0.2,0.4,0.3,0.8,0.3
		c0.5,0,1.2-0.2,1.9-0.5c0.8-0.3,1.6-0.7,2.5-1.2c0.9-0.5,1.8-1.1,2.8-1.7c1-0.6,1.9-1.3,2.9-2c1-0.7,1.9-1.4,2.7-2.1
		c0.9-0.7,1.6-1.3,2.3-1.9c0.2-0.2,0.4-0.3,0.7-0.4C36,59,36.2,59,36.4,59c0.5,0,0.9,0.2,1.2,0.5c0.3,0.3,0.5,0.8,0.5,1.4
		c0,0.5-0.2,1.1-0.5,1.7c-0.3,0.6-0.9,1.3-1.8,1.9c-1.6,1.4-3.1,2.8-4.7,4.1c-1.6,1.3-3.2,2.4-4.7,3.4c-1.6,1-3.1,1.8-4.7,2.4
		s-3.1,0.9-4.5,0.9c-1,0-1.8-0.1-2.5-0.4s-1.2-0.6-1.6-1.1c-0.4-0.5-0.7-1-0.9-1.6c-0.2-0.6-0.3-1.3-0.3-2c0-1.2,0.2-2.4,0.5-3.7
		c0.4-1.3,0.8-2.4,1.3-3.5c0.9-1.9,1.7-3.8,2.6-5.7s1.7-3.6,2.4-5.2l11.1-23.6c0.4-1,1-1.6,1.8-2c0.7-0.4,1.5-0.6,2.3-0.6
		c0.8,0,1.4,0.2,2.1,0.6c0.6,0.4,0.9,1.1,0.9,2c0,0.4-0.1,0.9-0.3,1.4c-0.2,0.5-0.5,1-0.8,1.6c-0.6,1.1-1.3,2.6-2.2,4.2
		c-0.8,1.7-1.7,3.5-2.7,5.4c-1,2-2,4-3,6.1c-1,2.1-2,4.2-3,6.2c-1,2-1.9,3.9-2.7,5.7C21.3,60.8,20.6,62.4,20,63.7z"/>
	<path d="M49.1,47.6c0.9,0,1.9,0.1,3,0.4c1.1,0.2,2,0.7,2.9,1.2s1.7,1.4,2.3,2.3c0.6,1,0.9,2.2,0.9,3.6c0,0.7-0.1,1.6-0.3,2.5
		s-0.5,1.9-0.9,2.9c0.2,0.3,0.5,0.5,0.8,0.6c0.3,0.1,0.7,0.2,1,0.2c0.5,0,1.1-0.1,1.7-0.4c0.6-0.3,1.3-0.7,1.9-1.1s1.3-1,2-1.6
		s1.3-1.2,1.9-1.8s1.1-1.1,1.6-1.7c0.5-0.5,0.9-1,1.2-1.3c0.2-0.2,0.4-0.3,0.6-0.3c0.3,0,0.6,0.2,0.9,0.5c0.3,0.4,0.4,0.8,0.4,1.5
		s-0.2,1.4-0.6,2.2c-0.4,0.8-1.1,1.7-2.1,2.6c-0.6,0.6-1.3,1.4-2,2.2s-1.6,1.6-2.4,2.3s-1.7,1.4-2.7,1.9c-0.9,0.5-1.9,0.8-2.8,0.8
		c-0.6,0-1.3-0.1-1.8-0.3c-0.6-0.2-1.2-0.5-1.8-1c-0.9,1.4-1.9,2.6-3,3.7s-2.4,2.1-3.8,2.9c-1.4,0.8-2.9,1.4-4.5,1.9
		c-1.6,0.5-3.3,0.7-5.1,0.7c-0.7,0-1.5-0.1-2.4-0.4c-0.9-0.3-1.8-0.7-2.6-1.3c-0.8-0.6-1.5-1.4-2.1-2.4c-0.6-1-0.8-2.2-0.8-3.7
		c0-1,0.2-2.1,0.5-3.5c0.3-1.4,0.8-2.8,1.4-4.2c0.6-1.5,1.5-2.9,2.5-4.3c1-1.4,2.2-2.7,3.5-3.8c1.4-1.1,2.9-2.1,4.7-2.7
		C45,48,47,47.6,49.1,47.6z M47.2,54.1c-1.1,0-2.3,0.3-3.3,0.9c-1.1,0.6-2,1.3-2.8,2.3c-0.8,0.9-1.5,2-2,3.2
		c-0.5,1.2-0.7,2.4-0.7,3.6c0,0.5,0,1,0.1,1.5c0.1,0.5,0.2,1.1,0.5,1.5c0.2,0.5,0.6,0.9,1,1.2s1,0.5,1.8,0.5c1.1,0,2.2-0.3,3.3-0.9
		c1.1-0.6,2-1.4,2.8-2.3c0.8-1,1.5-2.1,2-3.3s0.7-2.5,0.7-3.7c0-0.5,0-1-0.1-1.5c-0.1-0.5-0.2-1-0.4-1.4c-0.2-0.4-0.6-0.8-1-1.1
		S48,54.1,47.2,54.1z"/>
</g>
</svg>
